<svg width="7" height="12" viewBox="0 0 7 12" fill="none" xmlns="http://www.w3.org/2000/svg">
<path d="M6.1636 6.00006C6.16435 6.13166 6.13958 6.26213 6.09072 6.38396C6.04186 6.5058 5.96987 6.61662 5.87887 6.71006L1.9516 10.7101C1.86006 10.8033 1.75138 10.8773 1.63177 10.9277C1.51217 10.9782 1.38397 11.0042 1.25451 11.0042C1.12505 11.0042 0.996855 10.9782 0.877248 10.9277C0.757641 10.8773 0.648964 10.8033 0.557421 10.7101C0.465878 10.6168 0.393261 10.5061 0.343718 10.3843C0.294175 10.2625 0.268677 10.1319 0.268677 10.0001C0.268677 9.8682 0.294175 9.73763 0.343718 9.61581C0.393261 9.49399 0.465877 9.3833 0.557421 9.29006L3.80724 6.00006L0.685057 2.70006C0.584627 2.60807 0.503913 2.49596 0.447963 2.37075C0.392013 2.24553 0.362031 2.10991 0.359891 1.97236C0.357752 1.8348 0.3835 1.69828 0.435527 1.57132C0.487555 1.44437 0.564742 1.32971 0.662261 1.23453C0.759779 1.13934 0.875532 1.06567 1.00228 1.01813C1.12903 0.970586 1.26404 0.950191 1.39888 0.958219C1.53372 0.966248 1.66548 1.00253 1.78593 1.06479C1.90637 1.12705 2.01291 1.21395 2.09887 1.32006L5.88869 5.32006C6.0618 5.50293 6.16009 5.74606 6.1636 6.00006Z" fill="black"/>
</svg>
